<?xml version="1.0" encoding="UTF-8"?>
<svg width="150px" height="150px" viewBox="0 0 150 150" version="1.1" xmlns="http://www.w3.org/2000/svg" xmlns:xlink="http://www.w3.org/1999/xlink">
    <title>Combined Shape</title>
    <g id="Page-1" stroke="none" stroke-width="1" fill="none" fill-rule="evenodd">
        <g id="Artboard" transform="translate(-237.000000, -132.000000)" fill="#F4476B">
            <path d="M312.5,217.109375 C338.471094,217.109375 360.047073,236.287682 363.80954,261.2259 C350.345203,274.096575 332.095573,282 312,282 C292.339807,282 274.446437,274.435328 261.071776,262.05787 C264.475798,236.714618 286.24142,217.109375 312.5,217.109375 Z M312,132 C353.421356,132 387,165.578644 387,207 C387,224.045749 381.313478,239.76334 371.733992,252.359215 C368.92659,242.306279 363.568365,233.094226 355.987227,225.512773 C349.288771,218.814559 341.315873,213.855881 332.616986,210.854152 C341.933756,204.437252 348.054688,193.698055 348.054688,181.554688 C348.054688,161.949881 332.104807,146 312.5,146 C292.895193,146 276.945312,161.949881 276.945312,181.554688 C276.945312,193.698055 283.066244,204.437252 292.383254,210.854152 C283.684367,213.855881 275.711469,218.814559 269.013014,225.512773 C261.19178,233.334169 255.7365,242.891011 253.006957,253.314938 C242.980195,240.563975 237,224.480362 237,207 C237,165.578644 270.578644,132 312,132 Z M312.5,155.609375 C326.806197,155.609375 338.445312,167.24825 338.445312,181.554688 C338.445312,195.861125 326.806197,207.5 312.5,207.5 C298.193803,207.5 286.554688,195.861125 286.554688,181.554688 C286.554688,167.24825 298.193803,155.609375 312.5,155.609375 Z" id="Combined-Shape"></path>
        </g>
    </g>
</svg>