<?xml version="1.0" encoding="UTF-8"?>
<svg width="200px" height="200px" viewBox="0 0 200 200" version="1.1" xmlns="http://www.w3.org/2000/svg" xmlns:xlink="http://www.w3.org/1999/xlink">
    <title>Combined Shape 2</title>
    <g id="Page-1" stroke="none" stroke-width="1" fill="none" fill-rule="evenodd">
        <g id="Artboard" transform="translate(-168.000000, -110.000000)" fill="#F4476B">
            <g id="Combined-Shape-2" transform="translate(168.000000, 110.000000)">
                <path d="M100,0 C155.228475,0 200,44.771525 200,100 C200,155.228475 155.228475,200 100,200 C44.771525,200 0,155.228475 0,100 C0,44.771525 44.771525,0 100,0 Z M112.931627,37.236057 C112.523223,32.4585786 108.319109,28.8000128 103.401184,29.0084836 C99.730502,29.1657317 96.6425469,31.4407345 95.3159902,34.5771595 C93.9153535,33.8685792 92.3359883,33.5133251 90.7268809,33.5827236 C86.8042168,33.7507119 83.5336777,36.3308477 82.3894297,39.833267 C80.8692734,39.5140891 79.2238145,39.4548801 77.6813516,39.6561907 C76.3121094,36.1113613 72.7292773,33.6771826 68.7182129,33.8528819 C66.5489609,33.9456886 64.5413633,34.7660775 62.9754922,36.161207 C60.5762891,34.6173665 57.7474766,33.8484756 54.8335684,33.973503 C51.1639883,34.1304757 47.7722773,35.6756931 45.2832969,38.3238504 C43.1148711,40.6310739 41.8560605,43.5339676 41.661084,46.6194453 C41.049166,46.5227832 40.4237539,46.4869824 39.7958633,46.5139707 C37.3572793,46.6183438 35.1021055,47.646102 33.446457,49.4077765 C31.7775898,51.1832205 30.9164434,53.4896179 31.0213672,55.9017653 C31.0563418,56.7089355 31.1984434,57.4937991 31.4432656,58.2486451 C29.9487207,59.5366475 29,61.4409744 29,63.5636861 C29,67.2787071 31.9026172,70.3270071 35.5587031,70.5643939 L35.5587031,70.5643939 L45.1827793,146.079837 L45.2189453,146.331548 C45.8333746,150.170227 49.1868652,153.034003 53.122291,153.034003 L53.122291,153.034003 L77.0534609,153.034003 L77.0534609,161.351354 L77.0582522,161.563734 C77.1696465,164.027798 79.2093411,165.998297 81.7004023,165.998297 L81.7004023,165.998297 L120.608967,165.998297 L121.116443,166.267497 C125.706434,168.652041 130.905655,170 136.410881,170 C139.469369,170 142.504725,169.582232 145.432678,168.758263 C147.920832,168.057945 146.915105,164.050459 144.313766,164.781896 C141.749879,165.50342 139.091258,165.869139 136.410881,165.869139 C120.167516,165.869139 106.952621,152.482946 106.952621,136.028901 C106.952621,119.574856 120.167516,106.188663 136.410881,106.188663 C152.654246,106.188663 165.869141,119.574856 165.869141,136.028901 C165.869141,145.697319 161.210633,154.809447 153.407715,160.403459 C151.307035,161.909296 153.618389,165.334881 155.814629,163.760472 C164.697078,157.392612 170,147.025804 170,136.028901 C170,117.297099 154.932002,102.057802 136.410881,102.057802 C129.137539,102.057802 122.397354,104.408813 116.892295,108.397848 L116.892295,108.397848 L121.714109,70.5641185 L121.951459,70.5446731 C125.495024,70.1938698 128.272812,67.197389 128.272812,63.56286 C128.272812,60.8607261 126.736408,58.5119186 124.492525,57.3398556 C125.7439,55.1683997 126.359123,52.695391 126.247865,50.1422435 C125.938877,43.046526 120.063693,37.4533403 112.931627,37.236057 Z M136,150 C132.6915,150 130,152.915795 130,156.5 C130,160.083922 132.6915,163 136,163 C139.3085,163 142,160.084205 142,156.5 C142,152.915795 139.3085,150 136,150 Z M105.28816,148.801248 C107.334863,153.884135 110.564369,158.356755 114.630236,161.867436 L114.630236,161.867436 L105.28816,161.867436 Z M101.157301,147.66829 L101.157301,161.867436 L93.2362402,161.867436 L93.2362402,147.66829 L101.157301,147.66829 Z M89.1053809,147.66829 L89.1053809,161.867436 L81.7004023,161.867436 L81.6077797,161.859104 C81.3673157,161.815316 81.1843203,161.604224 81.1843203,161.351354 L81.1843203,161.351354 L81.1843203,148.184373 L81.1926531,148.09175 C81.2364405,147.851286 81.4475326,147.66829 81.7004023,147.66829 L81.7004023,147.66829 L89.1053809,147.66829 Z M136,154.248366 C137.128575,154.248366 138.046563,155.258344 138.046563,156.5 C138.046563,157.741373 137.128575,158.751634 136,158.751634 C134.871425,158.751634 133.953437,157.741656 133.953437,156.5 C133.953437,155.258344 134.871425,154.248366 136,154.248366 Z M123.000165,144 C121.40195,144.003965 119.869151,144.691917 118.745468,145.912898 C116.418177,148.442092 116.418177,152.557625 118.745468,155.087102 C119.880757,156.320545 121.391662,157 123.000165,157 C124.608667,157 126.119573,156.320545 127.254334,155.087102 C129.581889,152.557625 129.581889,148.442092 127.254334,145.912614 C126.119309,144.679172 124.608403,144 123.000165,144 Z M154.254363,145.881337 C151.959028,143.37616 148.046512,143.369617 145.745637,145.881337 C143.418121,148.421787 143.418121,152.555173 145.745637,155.095623 C148.072097,157.634935 151.927903,157.63465 154.254363,155.095623 C156.581879,152.555173 156.581879,148.421787 154.254363,145.881337 Z M148.560074,148.880325 C149.519937,148.00933 150.4798,148.00933 151.439662,148.880325 C152.252341,149.76725 152.252341,151.209995 151.439926,152.096635 C150.480063,152.96763 149.519937,152.96763 148.560074,152.096635 C147.747659,151.209995 147.747659,149.76725 148.560074,148.880325 Z M121.560215,148.898649 C122.520094,148.031416 123.480236,148.031416 124.440115,148.898649 C125.252543,149.78146 125.252543,151.217974 124.440115,152.101068 C123.707083,152.888148 122.278739,152.8822 121.560479,152.101068 C120.747787,151.218257 120.747787,149.78146 121.560215,148.898649 Z M56.4713164,70.5809173 L58.3775703,90.5241632 L58.1326125,90.8048707 C55.8772867,93.4570908 54.4945625,97.006709 54.4945625,100.904191 C54.4945625,106.998863 57.2589336,112.094142 60.8861035,116.158909 C60.8643477,116.315607 60.8582891,116.476435 60.8739863,116.640843 L60.8739863,116.640843 L63.9578105,148.903142 L53.122291,148.903142 L52.9219757,148.898051 C51.0630561,148.803387 49.5153765,147.399015 49.2805918,145.557696 L49.2805918,145.557696 L39.7250879,70.5809173 L56.4713164,70.5809173 Z M91.9003203,120.292524 L89.6784687,143.537429 L81.7004023,143.537429 L81.4880226,143.542221 C79.0239595,143.653615 77.0534609,145.69331 77.0534609,148.184373 L77.0534609,148.184373 L77.0534609,148.903142 L68.1071211,148.903142 L65.3846094,120.421682 L65.6931355,120.670101 C71.4557825,125.268841 77.3806685,127.716396 77.8611816,127.910658 C78.3830469,128.113621 78.9043613,128.111418 79.4254004,127.904324 C79.9120156,127.703013 86.0430371,125.112963 91.9003203,120.292524 L91.9003203,120.292524 Z M137.5,126 C131.710106,126 127,130.71018 127,136.5 C127,142.28982 131.710106,147 137.5,147 C143.289894,147 148,142.28982 148,136.5 C148,130.71018 143.289894,126 137.5,126 Z M117.547725,70.5806419 L112.216713,112.408914 L112.212995,112.452529 L112.212995,112.452529 L112.210104,112.495937 C106.399637,118.605756 102.821486,126.902177 102.821486,136.028626 C102.821486,138.608211 103.108719,141.120876 103.649861,143.537154 L103.649861,143.537154 L93.8277793,143.537154 L96.4696016,115.900317 L96.7619927,115.562602 C100.149695,111.596158 102.698425,106.705029 102.776873,100.93173 C102.829473,97.0360524 101.4214,93.2623732 98.8996484,90.4776221 L98.8996484,90.4776221 L100.801496,70.5806419 L117.547725,70.5806419 Z M137.500279,130.139726 C140.985417,130.139726 143.820453,132.992824 143.820453,136.5 C143.820453,140.007176 140.985138,142.860274 137.500279,142.860274 C134.015419,142.860274 131.180104,140.007176 131.180104,136.5 C131.180104,132.992824 134.01514,130.139726 137.500279,130.139726 Z M116,129 C112.6915,129.000283 110,131.916078 110,135.5 C110,139.083922 112.6915,142 116,142 C119.3085,142 122,139.084205 122,135.5 C122,131.915795 119.3085,129 116,129 Z M157,129 C153.6915,129 151,131.915795 151,135.5 C151,139.083922 153.6915,142 157,142 C160.308236,142 163,139.084205 163,135.5 C163,131.915795 160.3085,129 157,129 Z M115.999736,133.248649 C117.128311,133.248649 118.046299,134.258627 118.046299,135.500283 C118.046299,136.741939 117.128311,137.751917 115.999736,137.751917 C114.871425,137.751917 113.953174,136.741939 113.953174,135.500283 C113.953174,134.258627 114.871425,133.248649 115.999736,133.248649 Z M157,133.248366 C158.128311,133.248366 159.046563,134.258344 159.046563,135.5 C159.046563,136.741656 158.128575,137.751634 157,137.751634 C155.871425,137.751634 154.953437,136.741656 154.953437,135.5 C154.953437,134.258344 155.871425,133.248366 157,133.248366 Z M123.000132,116 C121.402172,116.003682 119.869101,116.691917 118.745675,117.912614 C116.418108,120.442092 116.418108,124.557625 118.745675,127.087102 C119.880707,128.320545 121.391621,129 123.000132,129 C124.608643,129 126.119557,128.320545 127.254325,127.087102 C129.581892,124.557625 129.581892,120.442092 127.254325,117.912614 C126.119293,116.679172 124.608379,116 123.000132,116 Z M150.000132,115 C148.401662,115 146.869399,115.697456 145.745458,116.918787 C143.418181,119.455767 143.418181,123.583971 145.745458,126.121235 C148.041083,128.623271 151.953378,128.629237 154.254542,126.121235 C156.581819,123.584255 156.581819,119.456051 154.254542,116.918787 C153.119259,115.681547 151.608362,115 150.000132,115 Z M121.55991,120.898649 C122.519794,120.031416 123.479942,120.031416 124.439826,120.898649 C125.252259,121.78146 125.252259,123.217974 124.439826,124.101068 C123.479942,124.968301 122.520058,124.968301 121.560174,124.101068 C120.747478,123.217974 120.747478,121.78146 121.55991,120.898649 Z M148.56019,119.91373 C149.520063,119.043827 150.479937,119.043827 151.43981,119.91373 C152.252234,120.799542 152.252234,122.240763 151.440074,123.126291 C150.4802,123.996194 149.520063,123.996194 148.56019,123.126291 C147.747766,122.240479 147.747766,120.799542 148.56019,119.91373 Z M89.1841426,90.1821279 C94.7880664,90.1821279 98.7178906,95.6056729 98.6462891,100.876101 C98.4722422,113.727209 82.3886035,121.981495 78.6253906,123.737111 C74.8351895,122.010687 58.6251465,113.865455 58.6251465,100.903915 C58.6251465,94.991827 62.8697422,90.1821279 68.0870176,90.1821279 C71.7992832,90.1821279 75.1868633,92.6644999 76.7166582,96.5059252 C77.3938438,98.206463 79.8773164,98.206463 80.554502,96.5059252 C82.0845723,92.6642245 85.471877,90.1821279 89.1841426,90.1821279 Z M136,109 C132.6915,109 130,111.915795 130,115.5 C130,119.084205 132.6915,122 136,122 C139.3085,122 142,119.084205 142,115.5 C142,111.916078 139.3085,109 136,109 Z M136,113.248366 C137.128311,113.248366 138.046563,114.258344 138.046563,115.5 C138.046563,116.741656 137.128575,117.751634 136,117.751634 C134.871689,117.751634 133.953437,116.741656 133.953437,115.5 C133.953437,114.258627 134.871425,113.248366 136,113.248366 Z M141.016952,80 C139.723441,80 138.500081,80.4188091 137.49972,81.1541536 C136.499074,80.4185392 135.275714,80 133.982488,80 C130.683693,80 128,82.7179413 128,86.0586992 C128,92.4503947 136.343089,95.7164038 136.69812,95.8524088 C137.238508,96.0512891 137.778327,96.0491303 138.31786,95.8462022 C138.668614,95.708848 146.908757,92.4088376 146.99944,86.086224 C147.043926,82.9618868 144.43295,80 141.016952,80 Z M141.017522,84.047768 C142.125676,84.2256 142.69401,84.8867354 142.722527,86.0314442 C142.68517,88.6465722 139.459948,90.7765077 137.505423,91.7374478 C135.864866,90.9330214 132.277483,88.8532782 132.277483,86.058969 C132.277483,84.9685003 133.058552,84.047768 133.982488,84.047768 C134.62297,84.047768 135.223814,84.4916732 135.512972,85.1787144 C136.214194,86.8450456 138.785817,86.8450456 139.487039,85.1787144 C139.776197,84.4916732 140.37704,84.047768 141.017522,84.047768 Z M96.6519102,70.5809173 L95.035918,87.4871542 L94.6713005,87.3056348 C92.9588692,86.4859584 91.0964551,86.0512669 89.1841426,86.0512669 C85.0271211,86.0512669 81.1768848,88.1166974 78.6355801,91.5304409 C76.0942754,88.1166974 72.2440391,86.0512669 68.0870176,86.0512669 C65.9940488,86.0512669 64.0106855,86.5717554 62.2379961,87.498996 L62.2379961,87.498996 L60.6209023,70.5809173 L96.6519102,70.5809173 Z M161.944084,56 C159.885384,56 157.956388,56.8515331 156.499604,58.3081848 C155.04282,56.8515331 153.113543,56 151.055124,56 C146.613745,56 143,59.9443306 143,64.792653 C143,74.541473 155.191334,79.6328071 155.710431,79.8449105 C156.242442,80.0538948 156.773892,80.0516264 157.30506,79.8383886 L157.30506,79.8383886 L157.375349,79.8085358 C158.48748,79.3303636 169.873158,74.203189 169.999208,64.8215762 C170.06013,60.2871556 166.598549,56 161.944084,56 Z M161.944365,60.2534119 C164.272861,60.2534119 165.818079,62.5851323 165.788601,64.7640134 C165.712238,70.4513922 158.871896,74.3486517 156.496235,75.5313838 C154.117205,74.3557407 147.21145,70.4525264 147.21145,64.7929366 C147.21145,62.2899455 148.936064,60.2536954 151.055405,60.2536954 C152.54307,60.2534119 153.912262,61.2878416 154.543656,62.8885423 C155.234007,64.6395302 157.765762,64.6395302 158.456113,62.8885423 C159.087508,61.2875581 160.456419,60.2534119 161.944365,60.2534119 Z M103.796118,33.1306096 L104.012821,33.1347256 C106.600581,33.2373844 108.717687,35.2449965 108.828307,37.7882154 C108.845105,38.1765163 108.809305,38.5689481 108.718977,38.9883682 C108.420178,40.3746851 109.633824,41.6731524 111.037215,41.4671602 C111.382279,41.4164883 111.728445,41.3837168 112.066074,41.3693965 C117.384693,41.139996 121.895592,45.1573959 122.120586,50.3217983 C122.219451,52.5948734 121.481129,54.779548 120.035328,56.5456288 L120.035328,56.5456288 L63.4119863,56.5456288 L63.2644862,56.5508149 C62.1926524,56.626451 61.3465566,57.5199851 61.3465566,58.6110593 C61.3465566,59.7517277 62.2713184,60.6764897 63.4119863,60.6764897 L63.4119863,60.6764897 L121.255309,60.6764897 L121.424644,60.6814002 C122.937631,60.7693797 124.141678,62.0285008 124.141678,63.5634107 C124.141678,65.1548938 122.846791,66.4500564 121.255309,66.4500564 L121.255309,66.4500564 L36.0172285,66.4500564 L35.847893,66.4451459 C34.3349058,66.3571664 33.1308594,65.0980453 33.1308594,63.5631354 C33.1308594,61.9716523 34.4257461,60.6767651 36.0172285,60.6767651 L36.0172285,60.6767651 L52.4062754,60.6767651 L52.5537755,60.671579 C53.6256093,60.5959429 54.4717051,59.7024088 54.4717051,58.6113346 C54.4717051,57.4706662 53.5469434,56.5459042 52.4062754,56.5459042 L52.4062754,56.5459042 L52.3047331,56.545991 C52.2825181,56.5460103 52.2567756,56.5460328 52.2276222,56.5460585 L51.2588342,56.5469628 L51.2588342,56.5469628 L51.1540092,56.5470657 L50.3161701,56.5479174 L50.3161701,56.5479174 L50.1826623,56.5480579 L49.317652,56.5489991 C49.0122648,56.5493408 48.690877,56.5497104 48.3566379,56.5501078 L48.3566379,56.5501078 L47.671958,56.5509395 C46.7386934,56.5520977 45.728973,56.5534523 44.7025194,56.555 L44.7025194,56.555 L43.9304749,56.5561969 C39.6772388,56.5629784 35.3933311,56.5730302 35.2706445,56.5861112 C34.2946602,52.3610666 39.2445313,49.2092197 42.840582,51.3613983 C44.3417363,52.2597229 46.2584551,50.9202223 45.9299141,49.2015088 C45.3835391,46.3385468 46.2986621,43.2745495 48.2927656,41.1532147 C50.0387422,39.2954289 52.4241758,38.211491 55.0098184,38.1007839 C57.5516738,37.990903 59.9946641,38.8435127 61.8863223,40.4988864 C63.0132207,41.2831992 64.0305137,41.1603749 64.9379258,40.1298628 C65.8472656,38.8324971 67.2894863,38.048735 68.8944629,37.9801627 C71.535459,37.8625709 73.8261582,39.7679994 74.1117383,42.3073773 C74.2461289,43.502573 75.4999824,44.418798 76.7384141,44.0607901 C78.8644297,43.4455672 81.1823926,43.5579266 83.2376328,44.3973175 C84.5630879,44.9392865 86.063416,43.9462275 86.0837949,42.5147465 C86.1206973,39.9343354 88.237625,37.8237408 90.9031309,37.709729 C92.5169199,37.6411568 94.0816895,38.3384461 95.0857637,39.5763274 C96.3101504,41.0860194 98.8294238,40.1370229 98.7536914,38.1946921 C98.6495938,35.523402 100.813613,33.253907 103.577434,33.135489 L103.577434,33.135489 L103.796118,33.1306096 Z M147.017042,29 C145.72355,29 144.500208,29.4188091 143.499863,30.1541536 C142.498947,29.4188091 141.275605,29 139.982398,29 C136.683653,29 134,31.7179413 134,35.0586992 C134,41.4506646 142.342678,44.7164038 142.697989,44.8524088 C143.23837,45.0512891 143.77818,45.0491303 144.317705,44.8462022 C144.668453,44.708848 152.908759,41.4091075 152.99944,35.0864938 C153.043925,31.9618868 150.432989,29 147.017042,29 Z M147.017327,33.047768 C148.125464,33.2256 148.69379,33.8867354 148.722306,35.0314442 C148.68495,37.6465722 145.459776,39.7765077 143.505281,40.737178 C141.865033,39.9327516 138.277419,37.8530083 138.277419,35.058969 C138.277419,33.9687702 139.058191,33.047768 139.982398,33.047768 C140.622871,33.047768 141.223705,33.4916732 141.512859,34.1787144 C142.21407,35.8450456 144.785655,35.8450456 145.486866,34.1787144 C145.77602,33.4916732 146.376855,33.047768 147.017327,33.047768 Z" id="Combined-Shape"></path>
            </g>
        </g>
    </g>
</svg>