<?xml version="1.0" encoding="UTF-8"?>
<svg width="100px" height="100px" viewBox="0 0 100 100" version="1.1" xmlns="http://www.w3.org/2000/svg" xmlns:xlink="http://www.w3.org/1999/xlink">
    <title>seat_free_deselected</title>
    <g id="Page-1" stroke="none" stroke-width="1" fill="none" fill-rule="evenodd">
        <g id="seat_free_deselected" fill="#97F1BE" fill-rule="nonzero">
            <path d="M50,0 C77.6142373,0 100,22.3857627 100,50 C100,77.6142373 77.6142373,100 50,100 C22.3857627,100 0,77.6142373 0,50 C0,22.3857627 22.3857627,0 50,0 Z M67.19697,21.8181818 L33.7121209,21.8181818 C28.7421973,21.8181818 24.69697,26.6220927 24.69697,32.5221991 L24.69697,37.3222409 C23.5882673,36.4705945 22.2306818,36.0074527 20.8333336,36.0042282 L18.2575755,36.0042282 C14.70303,36.00842 11.8223673,38.8930236 11.8181818,42.4524309 L11.8181818,65.6659618 C11.8223673,69.22537 14.70303,72.1099736 18.2575755,72.1141645 L22.1212118,72.1141645 L22.1212118,75.9830864 C22.1212118,76.6952909 22.69786,77.2727273 23.4090909,77.2727273 L28.5606064,77.2727273 C29.2718373,77.2727273 29.8484845,76.6952909 29.8484845,75.9830864 L29.8484845,72.1141645 L71.0606064,72.1141645 L71.0606064,75.9830864 C71.0606064,76.6952909 71.6372536,77.2727273 72.3484845,77.2727273 L77.5,77.2727273 C78.2112309,77.2727273 78.7878791,76.6952909 78.7878791,75.9830864 L78.7878791,72.1141645 L82.6515155,72.1141645 C86.2060609,72.1099736 89.0867236,69.22537 89.0909091,65.6659618 L89.0909091,42.4524309 C89.0867236,38.8930236 86.2060609,36.00842 82.6515155,36.0042282 L80.0757573,36.0042282 C78.6777655,36.0089036 77.32018,36.47398 76.2121209,37.3274 L76.2121209,32.5221991 C76.2121209,26.6169345 72.1668936,21.8181818 67.19697,21.8181818 Z M27.2727273,72.1141645 L27.2727273,74.6934464 L24.69697,74.6934464 L24.69697,72.1141645 L27.2727273,72.1141645 Z M76.2121209,72.1141645 L76.2121209,74.6934464 L73.6363636,74.6934464 L73.6363636,72.1141645 L76.2121209,72.1141645 Z M20.8333336,38.5835091 C22.9671873,38.5835091 24.69697,40.3156582 24.69697,42.4524309 L24.69697,56.6384782 C24.69697,57.3506818 25.2736173,57.9281182 25.9848482,57.9281182 L74.9242427,57.9281182 C75.6354736,57.9281182 76.2121209,57.3506818 76.2121209,56.6384782 L76.2121209,42.4524309 C76.2121209,40.3156582 77.9419036,38.5835091 80.0757573,38.5835091 L82.6515155,38.5835091 C84.7853691,38.5835091 86.5151518,40.3156582 86.5151518,42.4524309 L86.5151518,65.6659618 C86.5151518,67.8027355 84.7853691,69.5348836 82.6515155,69.5348836 L18.2575755,69.5348836 C16.1237218,69.5348836 14.3939391,67.8027355 14.3939391,65.6659618 L14.3939391,42.4524309 C14.3939391,40.3156582 16.1237218,38.5835091 18.2575755,38.5835091 L20.8333336,38.5835091 Z M67.19697,24.3974627 C70.7476518,24.3974627 73.6363636,28.0445664 73.6363636,32.5221991 L73.6363636,55.3488373 L27.2727273,55.3488373 L27.2727273,32.5221991 C27.2727273,28.0394082 30.1614391,24.3974627 33.7121209,24.3974627 L67.19697,24.3974627 Z" id="Combined-Shape"></path>
        </g>
    </g>
</svg>